<?xml version="1.0" encoding="utf-8"?>
<!-- Generator: Adobe Illustrator 19.0.0, SVG Export Plug-In . SVG Version: 6.00 Build 0)  -->
<svg version="1.1" id="Warstwa_1" xmlns="http://www.w3.org/2000/svg" xmlns:xlink="http://www.w3.org/1999/xlink" x="0px" y="0px"
	 viewBox="-180 374 250 45" style="enable-background:new -180 374 250 45;" xml:space="preserve">
<style type="text/css">
	.st0{fill:#007CC3;}
	.st1{fill:#D11242;}
	.st2{clip-path:url(#XMLID_3_);fill:url(#XMLID_4_);}
	.st3{fill:#FFFFFF;fill-opacity:0.5;}
</style>
<path id="XMLID_66_" class="st0" d="M-73.3,405.6c0.1,0,0.1-0.1,0.2-0.1l0,0c0.1-0.1,0.2-0.1,0.3-0.2v-17c-0.2-0.1-0.3-0.1-0.5-0.2
	c-0.2-0.1-0.5-0.1-0.7-0.2h0c-0.9-0.2-1.7-0.2-2.6-0.2c-1.3,0.1-2.5,0.5-3.6,1.3c-0.6,0.5-1.1,1.2-1.5,2c-0.5,0.9-0.8,1.9-1,2.9
	c-0.2,1.1-0.3,2.3-0.3,3.4c0,0.5,0.1,1.1,0.2,1.6c0.3,1.8,1.1,3.4,2.3,4.7c1,1,2.2,1.9,3.6,2.3v0c0.2,0.1,0.5,0.1,0.7,0.2
	C-75.3,406.2-74.3,406.1-73.3,405.6 M-75.3,408.5L-75.3,408.5L-75.3,408.5L-75.3,408.5c-0.6,0-1.1-0.1-1.6-0.2h0
	c-0.1,0-0.1,0-0.3-0.1h0c-0.4-0.1-0.9-0.2-1.3-0.4l0,0l0,0l0,0l-0.1,0l0,0l-0.1,0h0c-0.4-0.2-0.7-0.3-1-0.5l0,0l0,0
	c-0.6-0.3-1.1-0.7-1.6-1.1v0c-0.5-0.4-0.9-0.9-1.3-1.4c-0.8-1-1.4-2.1-1.9-3.3c-0.4-1.1-0.7-2.2-0.8-3.4c-0.2-1.5-0.1-3,0.2-4.5
	c0.3-1.6,0.9-3.1,1.7-4.5c0.6-1,1.4-1.8,2.4-2.5c1.3-0.9,2.8-1.3,4.4-1.3c2-0.1,4,0.4,5.8,1.2l0.2,0.1l0,18.7v0.4v2h0
	c0,0.7-0.1,1.7-0.2,2.7c-0.2,2.1-0.7,3.9-1.9,5.6c-0.2,0.3-0.5,0.6-0.8,0.9l0,0l0,0l0,0c-0.1,0.1-0.1,0.1-0.2,0.2
	c-0.1,0.1-0.1,0.1-0.2,0.2c-0.3,0.3-0.7,0.6-1.1,0.8l0,0l0,0c-0.1,0-0.2,0.1-0.2,0.1c-0.1,0-0.2,0.1-0.3,0.1v0
	c-0.4,0.2-0.9,0.4-1.4,0.6l0,0l0,0l-0.3,0.1l-0.1-0.3l-0.3-1h0l-0.2-0.6l-0.1-0.3l0.3-0.1l0,0v0c0.1,0,0.1,0,0.2-0.1l0,0l0,0l0,0
	l0.2-0.1v0c0.3-0.1,0.7-0.3,1-0.5h0l0,0l0,0l0.2-0.1v0l0.2-0.1h0c0.3-0.2,0.5-0.4,0.7-0.6c0.5-0.5,0.9-1.1,1.2-1.7
	c0.2-0.5,0.4-0.9,0.5-1.4c0.4-1.4,0.5-2.8,0.5-4.2l-0.1,0h0c-0.1,0-0.2,0.1-0.3,0.1c-0.1,0-0.2,0.1-0.3,0.1h0
	C-74.1,408.4-74.7,408.5-75.3,408.5z M-109.7,380.7c0.6,0,1.1,0.3,1.4,0.8c0.3,0.5,0.4,1,0.1,1.6c-0.4,0.8-1.1,1-1.8,0.8
	c-0.7-0.2-1.2-0.7-1.2-1.6c0-0.4,0.2-0.9,0.5-1.1C-110.5,380.9-110.2,380.7-109.7,380.7z M-108.6,407.4v0.4h-0.4h-1.6h-0.4v-0.4
	v-21.3h2.3C-108.6,386.1-108.6,407.4-108.6,407.4z M-98.5,389.3c-1.4,1.1-2.4,2.6-2.9,4.4c-0.2,0.5-0.3,1.1-0.4,1.6
	c-0.2,1.3-0.2,2.7,0,4l0,0h0l0,0.2l0,0l0,0.2h0c0.1,0.4,0.2,0.7,0.3,1.1l0,0l0,0l0,0l0.1,0.2h0l0.1,0.2c0.3,0.9,0.7,1.8,1.3,2.6
	c0.6,0.7,1.2,1.2,1.9,1.6l0,0c0.1,0,0.2,0.1,0.3,0.1c1.2,0.5,2.5,0.6,3.8,0.5c0.6-0.1,1.2-0.2,1.8-0.3l0,0c0.2,0,0.3-0.1,0.5-0.2
	v-17l-0.1-0.1v0c-0.1,0-0.1-0.1-0.2-0.1c-0.4-0.3-0.9-0.5-1.4-0.6c-0.8-0.1-1.6-0.1-2.4,0.2C-96.8,388.2-97.7,388.7-98.5,389.3z
	 M-92.1,385.7c0.2,0.1,0.3,0.1,0.5,0.2l0,0l0,0v-8.3c0.8,0,1.5,0,2.3,0c0,9.9,0,19.7,0,29.6c-0.2,0.1-0.4,0.2-0.6,0.3
	c-0.8,0.4-1.6,0.6-2.5,0.8h0c-0.4,0.1-0.9,0.1-1.3,0.2c-0.6,0-1.1,0.1-1.7,0.1v0c-0.2,0-0.5,0-0.7-0.1c0,0-0.1,0-0.1,0h0
	c-1.5-0.2-3-0.7-4.1-1.7c-1.2-0.9-2-2.2-2.7-3.6c-0.2-0.5-0.4-1.1-0.6-1.6v0l0,0l0,0l-0.1-0.2l0,0l-0.1-0.2l0,0
	c-0.1-0.4-0.2-0.9-0.3-1.3h0l0,0l0,0c-0.1-0.4-0.1-0.9-0.2-1.3v0c0-0.4,0-0.9,0-1.3c0-1.4,0.2-2.9,0.7-4.2c0.4-1.2,0.9-2.2,1.6-3.2
	c1-1.4,2.4-2.6,4-3.4c0.4-0.2,0.8-0.3,1.2-0.5c0.3-0.1,0.7-0.2,1.1-0.3c0.5-0.1,1-0.2,1.4-0.2C-93.5,385.3-92.8,385.4-92.1,385.7z
	 M-116.2,388.3l-0.1-0.1c0,0-0.1,0-0.1-0.1l0,0l0,0v0l0,0l0,0c-0.1,0-0.1,0-0.2-0.1v0l0,0l0,0l0,0h0l-0.1,0v0l-0.1,0l0,0
	c-0.2-0.1-0.4-0.1-0.5-0.2v0l0,0v0l-0.1,0v0l-0.1,0v0c-0.2,0-0.3-0.1-0.5-0.1h0l0,0c-0.2,0-0.3,0-0.5,0h0c-0.2,0-0.3,0-0.5,0
	c-0.6,0.1-1.2,0.4-1.7,0.9l0,0l-0.3,0.4l0,0l0,0l0,0.1h0l-0.1,0.1l0,0l-0.1,0.1l-0.1,0.1h0l-0.1,0.1v0l-0.1,0.2
	c-0.1,0.2-0.2,0.5-0.3,0.7v17.2h-2.3v-21.3V386h0.3h1.6h0.4v0.4v0.1c0.2-0.1,0.3-0.2,0.5-0.3c0.9-0.5,1.9-0.8,3-0.7h0l0.2,0h0l0.2,0
	h0l0,0l0,0l0.1,0h0l0.1,0l0,0c0.2,0,0.5,0.1,0.7,0.1l0,0l0,0l0.1,0l0,0l0.1,0h0c0.2,0.1,0.5,0.1,0.7,0.2l0,0l0,0l0,0l0.2,0.1l0,0
	c0,0,0.1,0.1,0.2,0.1l0,0l0,0v0l0.1,0l0,0l0.1,0h0c0.1,0,0.2,0.1,0.3,0.2l0.3,0.2l-0.2,0.3l-0.8,1.4l-0.2,0.3L-116.2,388.3z
	 M-139.2,387.8L-139.2,387.8c-0.3,0.1-0.5,0.2-0.8,0.3c-0.3,0.1-0.5,0.3-0.7,0.5v17c0.2,0.1,0.3,0.1,0.5,0.2
	c0.2,0.1,0.5,0.1,0.7,0.2v0c0.3,0.1,0.7,0.1,1,0.1c0.4,0,0.7,0,1.1,0h0h0.3h0c0.1,0,0.3,0,0.4,0v0l0.2,0l0,0
	c0.9-0.1,1.8-0.4,2.6-0.9c0.3-0.2,0.7-0.5,1-0.8h0c0.7-0.7,1.2-1.6,1.6-2.6c0.7-1.7,0.9-3.5,0.8-5.4c0-0.5-0.1-1.1-0.2-1.6
	c-0.5-2.6-1.9-5-4.3-6.3l0,0l0,0l0,0l0,0l-0.1,0v0c-0.1-0.1-0.2-0.1-0.3-0.2v0l-0.2-0.1h0c-0.1,0-0.2-0.1-0.2-0.1l0,0h0
	c-0.1,0-0.2-0.1-0.3-0.1c-0.1,0-0.2-0.1-0.3-0.1v0c-0.4-0.1-0.9-0.2-1.3-0.2C-138.3,387.7-138.8,387.7-139.2,387.8z M-136.6,385.5
	L-136.6,385.5l0.3,0.1l0,0c0.4,0.1,0.9,0.2,1.3,0.4h0c0.1,0,0.2,0.1,0.3,0.1c0.1,0,0.2,0.1,0.3,0.1l0,0l0,0h0l0.1,0l0,0l0.1,0l0,0
	l0.1,0.1l0,0l0.3,0.2l0,0l0,0l0,0c0.6,0.3,1.1,0.7,1.6,1.1v0c0.5,0.4,0.9,0.9,1.3,1.4c1.5,1.9,2.4,4.2,2.7,6.6c0.2,2,0,4-0.6,5.9h0
	c-0.2,0.5-0.3,1-0.5,1.5c-0.7,1.7-1.8,3.1-3.3,4.1c-1.2,0.8-2.7,1.2-4.3,1.3v0h-0.3h0c-0.4,0-0.9,0-1.3-0.1c-0.4,0-0.9-0.1-1.3-0.2
	c-0.4-0.1-0.8-0.2-1.2-0.3c-0.4-0.1-0.8-0.3-1.2-0.5l-0.5-0.2l-0.2-0.1l0-33.1h2.3v11.9l0,0v0l0,0l0,0c0.2-0.1,0.4-0.2,0.6-0.2
	c0.6-0.2,1.3-0.3,1.9-0.3C-137.6,385.3-137.1,385.4-136.6,385.5z"/>
<path id="XMLID_63_" class="st0" d="M-51.5,397.2c0-0.1,0-0.2,0-0.3c0.1-0.8,0.1-1.5,0-2.3c-0.1-1.2-0.3-2.4-0.9-3.4
	c-0.7-1.3-1.8-2.4-3.2-2.9c-0.7-0.3-1.4-0.4-2.1-0.4h0v0c-0.6,0-1.2,0.1-1.7,0.2h0c-0.1,0-0.2,0-0.3,0.1l0,0
	c-0.4,0.1-0.9,0.3-1.2,0.5l0,0l0,0h0c-0.3,0.2-0.5,0.3-0.8,0.5c-0.2,0.2-0.5,0.4-0.7,0.7c-0.8,0.9-1.3,2.1-1.7,3.3
	c-0.1,0.4-0.2,0.8-0.3,1.2c-0.2,0.9-0.2,1.9-0.2,2.8h12.8L-51.5,397.2L-51.5,397.2z M-64.2,399.5c0.1,0.4,0.2,0.8,0.4,1.2
	c0.1,0.3,0.3,0.7,0.4,1c0.4,0.8,1,1.6,1.7,2.3l0,0l0,0l0,0c0.1,0.1,0.1,0.1,0.2,0.2l0,0c0.1,0.1,0.1,0.1,0.2,0.2l0,0
	c0.1,0.1,0.3,0.2,0.4,0.3c0.6,0.4,1.2,0.8,1.9,1c0.1,0,0.2,0.1,0.3,0.1v0l0.1,0v0l0.1,0v0l0,0l0,0c0.4,0.1,0.9,0.2,1.3,0.2
	c0.5,0,1.1,0,1.6-0.2c0.2-0.1,0.5-0.2,0.7-0.3c0.3,0.7,0.7,1.4,1.1,2.1c-0.1,0.1-0.2,0.1-0.3,0.2c-0.5,0.2-1,0.4-1.6,0.5
	c-0.9,0.2-1.8,0.1-2.6,0c-0.6-0.1-1.2-0.3-1.8-0.5c-0.5-0.2-0.9-0.4-1.3-0.7c-1.9-1.1-3.4-2.8-4.3-4.9c-0.2-0.4-0.4-0.9-0.5-1.3
	c-0.4-1.3-0.6-2.6-0.7-4c-0.1-2.5,0.5-5.3,1.9-7.6c0.5-0.8,1.1-1.5,1.8-2.1c0.2-0.2,0.5-0.4,0.8-0.6v0l0,0l0,0
	c1-0.7,2.2-1.1,3.4-1.2c0.4-0.1,0.8-0.1,1.3-0.1h0v0c1.1,0,2.1,0.2,3,0.6c2.2,0.9,3.7,2.5,4.6,4.5c0.5,1.3,0.8,2.6,0.9,4
	c0.1,1.6,0,3.4-0.3,5h-0.8h-1.5H-64.2z"/>
<path id="XMLID_60_" class="st0" d="M27,380.7c0.3,0,0.6,0.2,0.8,0.4c0.2,0.3,0.2,0.6,0,0.9c-0.2,0.4-0.6,0.6-1,0.5
	c-0.4-0.1-0.7-0.4-0.7-0.9c0-0.3,0.1-0.5,0.3-0.6C26.5,380.8,26.7,380.7,27,380.7 M27.8,386.1v21.5h-1.6v-21.5H27.8z"/>
<path id="XMLID_59_" class="st0" d="M-18.7,395.6c-0.1-0.9-0.2-1.8-0.4-2.6c-0.2-0.9-0.5-1.7-0.9-2.5l0,0c-0.5-1.2-1.2-2.2-2.1-3
	c-0.2-0.1-0.3-0.3-0.6-0.5l0,0c-0.2-0.1-0.4-0.3-0.6-0.4l0,0l0,0l0,0c-1.3-0.8-2.8-1.1-4.3-1.1c-1.3,0-2.7,0.3-3.9,0.8
	c-0.1,0.1-0.3,0.1-0.4,0.2c-0.6,0.2-1.2,0.5-1.8,0.9c-0.1-0.1-0.2-0.2-0.3-0.2c-0.2-0.1-0.3-0.3-0.6-0.4l0,0
	c-0.2-0.1-0.4-0.2-0.6-0.4l0,0l0,0l0,0c-0.6-0.3-1.1-0.5-1.7-0.6c-0.1,0-0.2-0.1-0.3-0.1c-0.9-0.2-2.1-0.1-3.3,0
	c-0.8,0.1-1.5,0.3-2.3,0.5c-0.6,0.2-1.2,0.5-1.9,0.8l-0.5,0.3v0.5v19.9h1.6v-19.5c0.5-0.3,1-0.4,1.5-0.6c0.5-0.1,1.1-0.2,1.7-0.3
	c0.9-0.1,1.9-0.1,2.7,0c0.1,0,0.2,0,0.3,0.1c0.5,0.1,0.9,0.3,1.4,0.5l0,0l0,0l0,0c0.2,0.1,0.3,0.2,0.5,0.3h0
	c0.1,0.1,0.3,0.2,0.4,0.3c0.7,0.6,1.3,1.4,1.7,2.3l0,0c0.3,0.7,0.6,1.4,0.8,2.1c0.2,0.7,0.3,1.5,0.4,2.3c0,0.7,0,1.5,0,2.3v9.8h0
	v0.4h1.6V407v-10.1v0c0-0.7,0-1.4,0-2c-0.1-0.9-0.2-1.8-0.4-2.6c-0.2-0.8-0.5-1.7-0.9-2.4l0,0c-0.2-0.5-0.5-0.9-0.7-1.3
	c0.4-0.2,0.8-0.4,1.3-0.6c1.2-0.5,2.6-0.8,3.9-0.8c1.2,0,2.3,0.3,3.3,0.9l0,0l0,0v0c0.2,0.1,0.3,0.2,0.5,0.3h0
	c0.1,0.1,0.3,0.2,0.4,0.4c0.7,0.7,1.3,1.5,1.7,2.5l0,0c0.3,0.7,0.6,1.4,0.8,2.2c0.2,0.8,0.3,1.5,0.4,2.3c0,0.7,0,1.5,0,2.3v9.6h1.6
	v-9.9C-18.7,397-18.7,396.3-18.7,395.6"/>
<path id="XMLID_56_" class="st0" d="M1.8,399.1H0.5h-13.3c0,0.3,0.1,0.5,0.2,0.8c0.2,1,0.6,1.9,1.1,2.8c0.4,0.6,0.8,1.2,1.3,1.8
	c0.2,0.2,1.7,1.5,1.8,1.4c0.4,0.3,0.9,0.5,1.4,0.6c0.1,0,0.2,0.1,0.3,0.1c1.6,0.5,3.6,0,4.6-0.7l0.7,1.6c-1.3,0.8-3.8,1.3-5.8,0.8
	c-0.1,0-0.2-0.1-0.3-0.1c-1.4-0.5-2.7-1.3-3.8-2.4c-0.6-0.6-1.1-1.3-1.6-2.1c-1.7-2.9-2.1-6.6-1.4-10c0.6-2.6,1.8-5.3,4.1-6.8
	c0.7-0.5,1.4-0.8,2.3-1c0.8-0.2,1.6-0.3,2.4-0.3l0.1,0v0c0.9,0,1.7,0.2,2.5,0.4c0.6,0.2,1.2,0.5,1.7,0.9c3.5,2.4,4.4,7.8,3.3,12.4
	L1.8,399.1L1.8,399.1z M-13,396.4c0,0.3,0,0.7,0,1.1H0.8c0-0.3,0.1-0.7,0.1-1.1c0.2-3.1-0.7-6.8-3.3-8.4c-0.4-0.2-0.8-0.4-1.2-0.6
	c-0.1,0-0.2-0.1-0.4-0.1l0,0c-0.5-0.1-1.1-0.2-1.6-0.2c-1.2,0-2.5,0.3-3.5,0.9c-1.7,1-2.8,2.9-3.4,4.8C-12.8,394-13,395.2-13,396.4z
	"/>
<path id="XMLID_53_" class="st0" d="M13.1,408.2c-0.1,0-0.2-0.1-0.3-0.1c-0.6-0.2-1.1-0.5-1.7-0.8l0,0l0,0l0,0
	c-0.8-0.5-1.5-1-2.1-1.6c-0.6-0.6-1.1-1.3-1.6-2.1c-1.7-2.9-2-6.6-1.3-10.1c0.6-2.7,1.9-5.3,4.2-6.8c0.7-0.5,1.5-0.8,2.3-1
	c1.6-0.4,3.4-0.4,5,0.1c0.1,0,0.2,0.1,0.3,0.1v-8.4h1.6v27.9v1.5v0.4c-0.2,0.1-0.5,0.2-0.8,0.4l0,0l0,0l0,0
	c-0.6,0.2-1.2,0.4-1.8,0.5c-0.1,0-0.2,0-0.4,0.1C15.6,408.5,14.2,408.5,13.1,408.2 M7.4,396.4c0,1.2,0.1,2.4,0.3,3.5
	c0.2,1,0.6,1.9,1.1,2.8c0.4,0.6,0.8,1.2,1.3,1.8c0.5,0.5,1.1,1,1.8,1.4l0,0l0,0l0,0c0.5,0.3,0.9,0.5,1.4,0.6
	c0.8,0.3,1.8,0.4,2.8,0.3c0.7-0.1,1.3-0.2,1.9-0.4v-18.6c-0.3-0.1-0.6-0.3-0.9-0.3c-1.8-0.6-4.1-0.4-5.7,0.6c-1.7,1-2.8,2.9-3.4,4.9
	C7.7,393.9,7.5,395.1,7.4,396.4z"/>
<path id="XMLID_52_" class="st0" d="M34.3,396.4c0,1.2,0.1,2.4,0.3,3.5c0.2,1,0.6,1.9,1.1,2.8c0.4,0.6,0.8,1.2,1.3,1.8
	c0.5,0.5,1.1,1,1.8,1.4l0,0l0,0l0,0c0.4,0.3,0.9,0.5,1.4,0.6c0.1,0,0.2,0.1,0.3,0.1c0.9,0.3,1.7,0.3,2.6,0c0.1,0,0.2-0.1,0.3-0.1
	c0.5-0.2,0.9-0.4,1.4-0.6l0,0l0,0l0,0c0.1,0,0.1-0.1,0.2-0.1l0.7,1.6l-0.1,0l0,0l0,0l0,0c-0.5,0.3-1.1,0.6-1.7,0.8
	c-0.1,0-0.2,0.1-0.3,0.1c-1.2,0.4-2.3,0.4-3.6,0c-0.1,0-0.2-0.1-0.3-0.1c-0.6-0.2-1.1-0.4-1.7-0.8l0,0l0,0l0,0
	c-0.8-0.5-1.5-1-2.1-1.6c-0.6-0.6-1.1-1.3-1.6-2.1c-1.7-2.9-2-6.6-1.3-10c0.6-2.6,1.9-5.3,4.2-6.8c0.7-0.5,1.5-0.8,2.3-1
	c1.6-0.4,3.4-0.4,5,0.1c0.4,0.1,0.8,0.3,1.2,0.5l-0.6,1.5c-0.3-0.2-0.7-0.3-1.1-0.5c-1.8-0.6-4.1-0.4-5.7,0.6
	c-1.7,1-2.8,2.9-3.4,4.8C34.5,394,34.3,395.2,34.3,396.4"/>
<path id="XMLID_49_" class="st0" d="M61.6,393.3L61.6,393.3c0.2,0.8,0.3,1.6,0.4,2.4c0,0.4,0,0.8,0,1.2h0v9.3
	c-0.7,0.2-1.4,0.3-2.1,0.4c-1.1,0.1-2.1,0.1-3.2,0c-1.7-0.2-3.1-0.8-4.2-1.6c-0.9-0.7-1.5-1.6-1.9-2.5c-0.3-0.9-0.3-1.9,0.1-2.9
	c0.3-1,1-1.9,2.1-2.8c1.3-1.1,3-1.6,4.6-2c0.8-0.2,1.5-0.4,2.1-0.7C60.6,393.7,61.2,393.4,61.6,393.3 M63.6,395.6
	c-0.1-0.9-0.2-1.8-0.4-2.6c-0.2-0.9-0.5-1.7-0.9-2.5l0,0c-0.5-1.2-1.2-2.2-2.1-3c-0.2-0.1-0.3-0.3-0.6-0.5l0,0
	c-0.2-0.1-0.4-0.3-0.6-0.4l0,0l0,0v0c-0.6-0.3-1.1-0.6-1.7-0.8c-0.1,0-0.2-0.1-0.3-0.1c-0.7-0.2-1.4-0.3-2.2-0.3v0h0
	c-0.9,0-1.7,0.1-2.5,0.2c-0.8,0.2-1.6,0.4-2.4,0.8l-0.5,0.2l1.1,1.3c0.4-0.2,0.9-0.3,1.3-0.5l0,0l0,0l0,0l0,0l0,0
	c0.2-0.1,0.4-0.1,0.7-0.2c0.7-0.1,1.4-0.2,2.2-0.2h0v0c0.6,0,1.2,0.1,1.8,0.2c0.1,0,0.2,0.1,0.3,0.1c0.5,0.1,0.9,0.3,1.4,0.6l0,0
	l0,0l0,0c0.2,0.1,0.3,0.2,0.5,0.3h0c0.1,0.1,0.3,0.2,0.4,0.4c0.7,0.7,1.3,1.5,1.7,2.5l0,0c0.1,0.2,0.2,0.4,0.2,0.6
	c-0.4,0.1-1,0.4-2.1,0.8c-0.6,0.2-1.3,0.4-2,0.6c-1.7,0.5-3.7,1-5.2,2.4c-1.3,1.1-2.1,2.3-2.6,3.5c-0.5,1.4-0.5,2.8-0.1,4
	c0.4,1.3,1.2,2.4,2.4,3.3c1.3,1,3,1.7,4.9,1.9c1.2,0.1,2.4,0.1,3.5,0c1.1-0.1,2.5-0.4,3.5-0.8v-4.8h0v-5.1
	C63.6,397,63.6,396.3,63.6,395.6z"/>
<path id="XMLID_48_" class="st0" d="M70,377.5c0,13,0,8.1,0,30h-1.6c0-14.9,0-18.4,0-30L70,377.5z"/>
<path id="XMLID_17_" class="st1" d="M64.8,412.2h0.7l3.2,4.8l0.5,0.8h0.1v-5.6H70v6.9h-0.7l-3.2-4.8l-0.5-0.8h-0.1v5.6h-0.7
	L64.8,412.2L64.8,412.2z M60,418.5c0.7,0,1.2-0.2,1.5-0.7c0.3-0.5,0.5-1.2,0.5-2.2c0-1-0.2-1.7-0.5-2.2c-0.3-0.5-0.8-0.7-1.5-0.7
	s-1.2,0.2-1.5,0.7c-0.3,0.5-0.5,1.2-0.5,2.2c0,1,0.2,1.7,0.5,2.2C58.8,418.3,59.3,418.5,60,418.5z M60,419.2c-0.9,0-1.6-0.3-2-0.9
	c-0.5-0.6-0.7-1.5-0.7-2.7c0-1.2,0.2-2.1,0.7-2.7c0.5-0.6,1.1-0.9,2-0.9c0.9,0,1.6,0.3,2,0.9c0.5,0.6,0.7,1.5,0.7,2.7
	c0,1.2-0.2,2.1-0.7,2.7C61.6,418.9,60.9,419.2,60,419.2z M54.4,412.2h0.8v6.9h-0.8V412.2z M49.8,412.8h-2v-0.7h4.8v0.7h-2v6.2h-0.8
	L49.8,412.8L49.8,412.8z M43.5,419.2c-0.5,0-0.8-0.1-1.2-0.2c-0.3-0.1-0.6-0.3-0.8-0.5c-0.2-0.2-0.4-0.5-0.4-0.9
	c-0.1-0.4-0.1-0.8-0.1-1.3v-4.2h0.8v4.1c0,0.8,0.1,1.3,0.4,1.7s0.7,0.5,1.3,0.5c0.6,0,1-0.2,1.3-0.5s0.4-0.9,0.4-1.7v-4.1h0.8v4.2
	c0,0.5,0,0.9-0.1,1.3c-0.1,0.4-0.2,0.7-0.5,0.9c-0.2,0.2-0.5,0.4-0.8,0.5S44,419.2,43.5,419.2z M36.5,415.3c0.5,0,0.9-0.1,1.2-0.3
	c0.2-0.2,0.3-0.5,0.3-1c0-0.5-0.1-0.8-0.4-1c-0.2-0.2-0.6-0.3-1.2-0.3c-0.2,0-0.5,0-0.7,0c-0.2,0-0.4,0-0.6,0.1v2.5
	C35.2,415.3,36.5,415.3,36.5,415.3z M36.5,418.6c1.1,0,1.7-0.5,1.7-1.3c0-0.5-0.1-0.8-0.4-1c-0.3-0.2-0.7-0.3-1.3-0.3h-1.3v2.6
	c0.1,0,0.3,0.1,0.5,0.1C36,418.5,36.2,418.6,36.5,418.6z M36.5,419.2c-0.3,0-0.6,0-1,0c-0.4,0-0.7-0.1-1-0.1v-6.8
	c0.4,0,0.8-0.1,1.1-0.1c0.3,0,0.6,0,0.8,0c0.8,0,1.4,0.1,1.8,0.4c0.4,0.3,0.6,0.8,0.6,1.4c0,0.4-0.1,0.8-0.3,1.1
	c-0.2,0.3-0.5,0.5-0.8,0.5v0c0.4,0.1,0.7,0.3,1,0.6c0.2,0.3,0.3,0.7,0.3,1.1C39,418.5,38.2,419.2,36.5,419.2z M31.3,412.2h0.8v6.9
	h-0.8V412.2z M26.5,415.9c0.3,0,0.6,0,0.9-0.1c0.2-0.1,0.4-0.2,0.6-0.3c0.2-0.1,0.3-0.3,0.3-0.5c0.1-0.2,0.1-0.4,0.1-0.7
	c0-0.6-0.2-1-0.5-1.2c-0.3-0.2-0.8-0.4-1.5-0.4c-0.1,0-0.3,0-0.5,0c-0.2,0-0.3,0-0.5,0.1v3c0.1,0,0.2,0,0.4,0.1
	C26.1,415.9,26.3,415.9,26.5,415.9z M27.1,416.5c-0.1,0-0.2,0-0.4,0c-0.1,0-0.2,0-0.4,0c-0.1,0-0.3,0-0.4,0c-0.2,0-0.3,0-0.4,0v2.6
	h-0.8v-6.9c0.3,0,0.5-0.1,0.8-0.1c0.3,0,0.5,0,0.8,0c1,0,1.7,0.2,2.2,0.5c0.5,0.4,0.7,0.9,0.7,1.7c0,0.5-0.1,1-0.3,1.3
	c-0.2,0.3-0.6,0.6-1,0.7l1.5,2.7h-0.8L27.1,416.5z M20.2,412.8h-2v-0.7h4.8v0.7h-2v6.2h-0.8V412.8z M14.6,419.2c-0.1,0-0.3,0-0.5,0
	s-0.3,0-0.5-0.1c-0.2,0-0.3-0.1-0.5-0.1c-0.2,0-0.3-0.1-0.5-0.1l0-0.7c0.1,0,0.3,0.1,0.5,0.1c0.2,0,0.3,0.1,0.5,0.1s0.3,0,0.5,0.1
	c0.2,0,0.3,0,0.4,0c0.5,0,0.9-0.1,1.1-0.3c0.3-0.2,0.4-0.5,0.4-0.9c0-0.2,0-0.4-0.1-0.5c-0.1-0.1-0.2-0.3-0.3-0.4
	c-0.1-0.1-0.3-0.2-0.5-0.3c-0.2-0.1-0.4-0.2-0.6-0.2c-0.3-0.1-0.6-0.2-0.8-0.3c-0.2-0.1-0.4-0.3-0.6-0.4c-0.2-0.2-0.3-0.3-0.3-0.5
	c-0.1-0.2-0.1-0.4-0.1-0.7c0-0.3,0.1-0.5,0.2-0.8c0.1-0.2,0.3-0.4,0.4-0.6c0.2-0.2,0.4-0.3,0.7-0.4c0.3-0.1,0.6-0.1,0.9-0.1
	c0.2,0,0.5,0,0.8,0.1c0.3,0,0.6,0.1,0.9,0.2l0,0.7c-0.3-0.1-0.6-0.1-0.8-0.2c-0.3,0-0.5-0.1-0.7-0.1c-0.5,0-0.8,0.1-1.1,0.3
	c-0.3,0.2-0.4,0.5-0.4,0.9c0,0.2,0,0.3,0.1,0.4c0.1,0.1,0.1,0.2,0.3,0.4c0.1,0.1,0.3,0.2,0.4,0.3c0.2,0.1,0.4,0.2,0.7,0.3
	c0.3,0.1,0.5,0.2,0.8,0.3c0.2,0.1,0.4,0.2,0.6,0.4c0.2,0.2,0.3,0.3,0.4,0.6s0.1,0.5,0.1,0.8c0,0.6-0.2,1.1-0.6,1.4
	C15.8,419,15.3,419.2,14.6,419.2z M9.8,412.2h0.8v6.9H9.8V412.2z M4.5,418.5c0.8,0,1.5-0.2,1.9-0.7c0.4-0.5,0.6-1.2,0.6-2.2
	c0-1-0.2-1.7-0.6-2.2c-0.4-0.5-1-0.7-1.8-0.7c-0.2,0-0.3,0-0.5,0c-0.2,0-0.4,0-0.5,0.1v5.6c0.2,0,0.4,0.1,0.5,0.1
	C4.1,418.5,4.3,418.5,4.5,418.5z M4.2,419.2c-0.3,0-0.6,0-0.8,0s-0.5,0-0.7-0.1v-6.9c0.3,0,0.6-0.1,0.9-0.1c0.3,0,0.6,0,0.8,0
	c1.1,0,1.9,0.3,2.5,0.9c0.5,0.6,0.8,1.5,0.8,2.7c0,0.6-0.1,1.2-0.2,1.6c-0.1,0.5-0.3,0.8-0.6,1.1c-0.3,0.3-0.6,0.5-1.1,0.6
	C5.4,419.1,4.8,419.2,4.2,419.2z M-6.7,416.8c-0.3-0.2-0.5-0.4-0.8-0.5c-0.2-0.2-0.4-0.3-0.6-0.5c-0.5,0.3-0.8,0.7-0.8,1.3
	c0,0.4,0.1,0.8,0.4,1.1c0.3,0.3,0.7,0.4,1.2,0.4c0.8,0,1.4-0.3,1.7-1L-6.7,416.8z M-7.3,419.2c-0.4,0-0.7,0-1-0.1
	c-0.3-0.1-0.5-0.2-0.7-0.4c-0.2-0.2-0.4-0.4-0.5-0.6s-0.2-0.5-0.2-0.9c0-0.4,0.1-0.8,0.3-1.1c0.2-0.3,0.5-0.5,0.9-0.7
	c-0.2-0.2-0.3-0.5-0.4-0.7c-0.1-0.2-0.1-0.5-0.1-0.8c0-0.6,0.2-1,0.5-1.4c0.3-0.3,0.8-0.5,1.5-0.5c0.2,0,0.5,0,0.7,0.1
	c0.3,0.1,0.5,0.1,0.8,0.3l0,0.1l-0.1,0.5h-0.1c-0.5-0.2-0.9-0.3-1.3-0.3c-0.8,0-1.3,0.4-1.3,1.3c0,0.2,0,0.4,0.1,0.6
	c0.1,0.2,0.2,0.4,0.3,0.6c0.1,0.2,0.3,0.4,0.6,0.6c0.2,0.2,0.5,0.4,0.9,0.6l1,0.6c0-0.1,0-0.3,0.1-0.4c0-0.2,0-0.3,0-0.5v-0.7h0.7
	v0.7c0,0.3,0,0.5,0,0.7c0,0.2-0.1,0.4-0.1,0.6l0.7,0.4v0.1l-0.3,0.6h-0.1l-0.6-0.4C-5.5,418.7-6.2,419.2-7.3,419.2z M-21.7,412.2
	h0.8v3h3.5v-3h0.8v6.9h-0.8v-3.2H-21v3.2h-0.8V412.2z M-25.1,419.2c-1,0-1.7-0.3-2.2-0.9c-0.5-0.6-0.7-1.5-0.7-2.7
	c0-1.2,0.2-2.1,0.7-2.7c0.5-0.6,1.2-0.9,2.2-0.9c0.2,0,0.4,0,0.6,0c0.2,0,0.5,0.1,0.7,0.1v0.7c-0.5-0.1-0.9-0.1-1.2-0.1
	c-0.4,0-0.7,0.1-1,0.2c-0.3,0.1-0.5,0.3-0.7,0.5c-0.2,0.2-0.3,0.5-0.4,0.9c-0.1,0.4-0.1,0.8-0.1,1.3c0,1,0.2,1.7,0.5,2.2
	c0.3,0.5,0.9,0.7,1.6,0.7c0.1,0,0.2,0,0.3,0c0.1,0,0.2,0,0.4,0s0.2,0,0.4-0.1c0.1,0,0.2,0,0.3-0.1v0.7c-0.2,0-0.4,0.1-0.6,0.1
	C-24.6,419.1-24.8,419.2-25.1,419.2z M-32.5,415.9c0.3,0,0.6,0,0.9-0.1c0.2-0.1,0.4-0.2,0.6-0.3c0.2-0.1,0.3-0.3,0.3-0.5
	c0.1-0.2,0.1-0.4,0.1-0.7c0-0.6-0.2-1-0.5-1.2c-0.3-0.2-0.8-0.4-1.5-0.4c-0.1,0-0.3,0-0.5,0c-0.2,0-0.3,0-0.5,0.1v3
	c0.1,0,0.2,0,0.4,0.1C-32.9,415.9-32.7,415.9-32.5,415.9z M-31.9,416.5c-0.1,0-0.2,0-0.4,0c-0.1,0-0.2,0-0.4,0c-0.1,0-0.3,0-0.4,0
	c-0.2,0-0.3,0-0.4,0v2.6h-0.8v-6.9c0.3,0,0.5-0.1,0.8-0.1c0.3,0,0.5,0,0.8,0c1,0,1.7,0.2,2.2,0.5c0.5,0.4,0.7,0.9,0.7,1.7
	c0,0.5-0.1,1-0.3,1.3c-0.2,0.3-0.6,0.6-1,0.7l1.5,2.7h-0.8L-31.9,416.5z M-37.6,416.3l-0.8-2.4l-0.4-1.1h-0.1l-0.4,1.1l-0.8,2.4
	H-37.6z M-41.6,419l2.2-6.9h1.1l2.2,6.9v0.1h-0.7l-0.7-2.1h-2.8l-0.7,2.1L-41.6,419L-41.6,419L-41.6,419z M-47,412.2h4v0.7h-3.2v2.4
	h3v0.7h-3v2.5h3.3v0.7H-47L-47,412.2L-47,412.2z M-51.3,419.2c-0.1,0-0.3,0-0.5,0c-0.2,0-0.3,0-0.5-0.1c-0.2,0-0.3-0.1-0.5-0.1
	c-0.2,0-0.3-0.1-0.5-0.1l0-0.7c0.1,0,0.3,0.1,0.5,0.1c0.2,0,0.3,0.1,0.5,0.1s0.3,0,0.5,0.1c0.2,0,0.3,0,0.4,0c0.5,0,0.9-0.1,1.1-0.3
	c0.3-0.2,0.4-0.5,0.4-0.9c0-0.2,0-0.4-0.1-0.5c-0.1-0.1-0.2-0.3-0.3-0.4c-0.1-0.1-0.3-0.2-0.5-0.3c-0.2-0.1-0.4-0.2-0.6-0.2
	c-0.3-0.1-0.6-0.2-0.8-0.3c-0.2-0.1-0.4-0.3-0.6-0.4c-0.2-0.2-0.3-0.3-0.3-0.5c-0.1-0.2-0.1-0.4-0.1-0.7c0-0.3,0.1-0.5,0.2-0.8
	c0.1-0.2,0.2-0.4,0.4-0.6c0.2-0.2,0.4-0.3,0.7-0.4c0.3-0.1,0.6-0.1,0.9-0.1c0.2,0,0.5,0,0.8,0.1s0.6,0.1,0.9,0.2l0,0.7
	c-0.3-0.1-0.6-0.1-0.8-0.2c-0.3,0-0.5-0.1-0.7-0.1c-0.5,0-0.8,0.1-1.1,0.3c-0.3,0.2-0.4,0.5-0.4,0.9c0,0.2,0,0.3,0.1,0.4
	c0.1,0.1,0.1,0.2,0.3,0.4c0.1,0.1,0.3,0.2,0.4,0.3s0.4,0.2,0.7,0.3c0.3,0.1,0.5,0.2,0.8,0.3c0.2,0.1,0.4,0.2,0.6,0.4
	s0.3,0.3,0.4,0.6c0.1,0.2,0.1,0.5,0.1,0.8c0,0.6-0.2,1.1-0.6,1.4C-50,419-50.5,419.2-51.3,419.2z M-59,412.2h4v0.7h-3.2v2.4h3v0.7
	h-3v2.5h3.3v0.7H-59V412.2z M-63.8,415.9c0.3,0,0.6,0,0.9-0.1c0.2-0.1,0.4-0.2,0.6-0.3c0.2-0.1,0.3-0.3,0.3-0.5
	c0.1-0.2,0.1-0.4,0.1-0.7c0-0.6-0.2-1-0.5-1.2c-0.3-0.2-0.8-0.4-1.5-0.4c-0.1,0-0.3,0-0.5,0c-0.2,0-0.3,0-0.5,0.1v3
	c0.1,0,0.2,0,0.4,0.1C-64.2,415.9-64,415.9-63.8,415.9z M-63.2,416.5c-0.1,0-0.2,0-0.4,0c-0.1,0-0.2,0-0.4,0c-0.1,0-0.3,0-0.4,0
	c-0.2,0-0.3,0-0.4,0v2.6h-0.8v-6.9c0.3,0,0.5-0.1,0.8-0.1c0.3,0,0.5,0,0.8,0c1,0,1.7,0.2,2.2,0.5c0.5,0.4,0.7,0.9,0.7,1.7
	c0,0.5-0.1,1-0.3,1.3c-0.2,0.3-0.6,0.6-1,0.7l1.5,2.7h-0.8L-63.2,416.5z"/>
<g id="XMLID_13_">
	<g id="XMLID_14_">
		<defs>
			<path id="XMLID_16_" d="M-149.7,374h-26.9v30.7c4.1-1.9,8.7-2.9,13.5-2.9s9.3,1,13.5,2.9L-149.7,374L-149.7,374z"/>
		</defs>
		<clipPath id="XMLID_3_">
			<use xlink:href="#XMLID_16_"  style="overflow:visible;"/>
		</clipPath>
		
			<linearGradient id="XMLID_4_" gradientUnits="userSpaceOnUse" x1="-1047.4083" y1="396.0081" x2="-1047.0204" y2="396.0081" gradientTransform="matrix(36.8 -63.4695 -65.4337 -37.9389 64288.6406 -51056.2383)">
			<stop  offset="0" style="stop-color:#0080C6"/>
			<stop  offset="0.19" style="stop-color:#0086C9"/>
			<stop  offset="1" style="stop-color:#ECF2FA"/>
		</linearGradient>
		<polygon id="XMLID_15_" class="st2" points="-156.5,416.8 -136.8,381.7 -169.9,361.9 -189.5,397 		"/>
	</g>
</g>
<path id="XMLID_12_" class="st1" d="M-180,406.9c3.6-1.7,7.6-2.7,11.7-2.9h3.5c4.2,0.2,8.1,1.2,11.7,2.9v12.2H-180V406.9z"/>
<path id="XMLID_5_" class="st3" d="M-149.7,392c-9.8,1-19.4,4.9-26.9,11.5v0.7c8-5.1,17.6-7.9,26.9-6.2V392z"/>
<path id="XMLID_2_" class="st3" d="M-149.7,388.8c-2.7,0.5-5.4,1.2-8,2.2l-4.9,2.1c-5.3,2.6-10,6.1-14,10.1v1.1
	c8.2-4.2,17.9-6.3,26.9-3.6L-149.7,388.8L-149.7,388.8z"/>
</svg>
